<?xml version="1.0" encoding="UTF-8"?>
<svg id="Layer_2" data-name="Layer 2" xmlns="http://www.w3.org/2000/svg" viewBox="0 0 64.3 64.3">
  <defs>
    <style>
      .cls-1 {
        fill: #119f9f;
      }

      .cls-1, .cls-2 {
        stroke-width: 0px;
      }

      .cls-2 {
        fill: #ec6819;
      }
    </style>
  </defs>
  <g id="_單元三_互動_身_心能量充電站" data-name="單元三_互動_身、心能量充電站">
    <g>
      <rect class="cls-1" x="0" y="0" width="64.3" height="64.3" rx="32.15" ry="32.15"/>
      <g>
        <polygon class="cls-2" points="38.37 28.31 48.39 28.31 46.8 27.26 51.89 23 46.17 23 46.55 20.35 38.37 28.31"/>
        <path class="cls-2" d="m16.16,51.68l7.59-27.61c2.3-7.89,17.08-7.25,17.08-7.25,0,0,1.79,3.76.16,6.06-1.07,1.51-2.99,2.69-6.49,4.44,3.63,5.16,10.01,3.23,10.01,3.23,0,0,.47,2.42-.33,4.84-1.27,3.85-5.3,5.87-5.3,5.87l2.62,10.42h-25.34Z"/>
      </g>
    </g>
  </g>
</svg>